# xmcd CD database file
#
# Track frame offsets:
#	150
#	41537
#	52625
#	94187
#	124362
#	146150
#	175312
#	200912
#	227062
#	253550
#	272312
#	292000
#
# Disc length: 4256 seconds
#
# Revision: 2
# Processed by: cddbd v1.5.1PL0 Copyright (c) Steve Scherf et al.
# Submitted via: CDex 1.51
#
DISCID=b1109e0c
DTITLE=Various Artist - The Best of Jazz Standard
DYEAR=1900
DGENRE=Jazz
TTITLE0=So What/ Miles Davis
TTITLE1=Bossa Nova U.S.A./ The Dave Brubeck Quartet
TTITLE2=Dear Old Stockholm/ The Phil Woods Quartet with Gene Quill
TTITLE3=T.T.T./ Bill Evans
TTITLE4=Goodbye Pork Pie Hat/ Charles Mingus
TTITLE5=Monk's Dream/ Thelonious Monk
TTITLE6=Ruby, My Dear/ Lee Konitz
TTITLE7=Everything Happens To Me/ The Dave Brubeck Quartet
TTITLE8=Lester Left Town/ Stan Getz
TTITLE9=Phomethean/ Tony Williams Trio
TTITLE10=There Will Never Be Another you/ Bud Powell
TTITLE11=Ecaroh/ Art Blakey
EXTD=
EXTT0=
EXTT1=
EXTT2=
EXTT3=
EXTT4=
EXTT5=
EXTT6=
EXTT7=
EXTT8=
EXTT9=
EXTT10=
EXTT11=
PLAYORDER=
